<svg width="24" height="24" viewBox="0 0 24 24" fill="none" xmlns="http://www.w3.org/2000/svg">
<path fill-rule="evenodd" clip-rule="evenodd" d="M11.2804 2.02394C9.17137 2.20894 7.30137 2.94994 5.71937 4.22494C4.04437 5.57594 2.81137 7.50494 2.30337 9.57094C2.08737 10.4519 2.02637 10.9809 2.02637 11.9999C2.02637 13.0189 2.08737 13.5479 2.30337 14.4289C3.18937 18.0359 6.14237 20.9309 9.76037 21.7399C10.6044 21.9289 11.0474 21.9759 12.0004 21.9759C12.9534 21.9759 13.3964 21.9289 14.2404 21.7399C17.8584 20.9309 20.8114 18.0359 21.6974 14.4289C21.9104 13.5599 21.9734 13.0159 21.9754 12.0199C21.9764 11.0439 21.9324 10.6159 21.7404 9.75994C21.2824 7.71094 20.0824 5.73494 18.4804 4.39094C16.6564 2.85994 14.5654 2.06994 12.2204 2.02294C11.9071 2.014 11.5936 2.01434 11.2804 2.02394ZM12.8204 4.04094C15.6084 4.35194 17.9944 6.03094 19.2004 8.52894C19.7257 9.61119 19.9985 10.7986 19.9983 12.0016C19.9982 13.2046 19.725 14.3918 19.1994 15.4739C18.5442 16.8271 17.5218 17.9689 16.2489 18.769C14.976 19.5691 13.5038 19.9953 12.0004 19.9989C10.4963 19.9959 9.02336 19.5697 7.7501 18.7689C6.47685 17.9682 5.45464 16.8253 4.80037 15.4709C4.27523 14.3892 4.00239 13.2024 4.00239 11.9999C4.00239 10.7975 4.27523 9.61068 4.80037 8.52894C5.5844 6.89894 6.89937 5.58398 8.52937 4.79994C9.85237 4.15994 11.4154 3.88394 12.8204 4.04094ZM16.0204 8.11594C15.9309 8.14219 15.8439 8.17633 15.7604 8.21794C15.6834 8.25694 14.4864 9.42094 13.1004 10.8039L10.5794 13.3199L9.50037 12.2369C8.28537 11.0189 8.18737 10.9459 7.76037 10.9459C7.47037 10.9449 7.30137 11.0129 7.08637 11.2139C6.93062 11.3601 6.82711 11.5533 6.79171 11.7639C6.75631 11.9745 6.79096 12.1909 6.89037 12.3799C7.02637 12.6419 9.89737 15.5099 10.1484 15.6359C10.3544 15.7389 10.7714 15.7499 10.9914 15.6579C11.1824 15.5799 17.0074 9.77494 17.1264 9.54494C17.2103 9.37324 17.2451 9.18167 17.2269 8.99141C17.2088 8.80116 17.1383 8.61964 17.0234 8.46694C16.8224 8.20294 16.3374 8.03294 16.0204 8.11594Z" fill="#10161F"/>
</svg>
