<svg width="24" height="24" viewBox="0 0 24 24" fill="none" xmlns="http://www.w3.org/2000/svg">
<path fill-rule="evenodd" clip-rule="evenodd" d="M4.477 4.073C3.988 4.201 3.546 4.543 3.265 5.014C2.988 5.475 3 5.217 3.002 11.028C3.004 15.84 3.01 16.281 3.073 16.523C3.253 17.212 3.86 17.795 4.549 17.941C4.955 18.027 19.045 18.027 19.451 17.941C19.822 17.863 20.092 17.709 20.401 17.401C20.709 17.092 20.863 16.822 20.941 16.451C21.027 16.047 21.027 5.953 20.941 5.549C20.795 4.86 20.212 4.253 19.523 4.073C19.279 4.01 18.734 4.005 12 4.005C5.266 4.005 4.721 4.01 4.477 4.073ZM19 11V16H5V6H19V11ZM2.673 19.063C2.31 19.175 2 19.606 2 20C2 20.405 2.309 20.826 2.69 20.939C2.87 20.993 3.965 21 12 21C20.035 21 21.13 20.993 21.31 20.939C21.688 20.827 22 20.402 22 20C22 19.598 21.688 19.173 21.31 19.061C21.129 19.007 20.039 19 11.983 19.003C4.16 19.005 2.833 19.014 2.673 19.063Z" fill="#10161F"/>
</svg>
