<svg width="24" height="24" viewBox="0 0 24 24" fill="none" xmlns="http://www.w3.org/2000/svg">
<path fill-rule="evenodd" clip-rule="evenodd" d="M9.059 2.61599C8.91 2.69199 8.506 3.07299 7.495 4.08899C6.288 5.30299 6.124 5.48299 6.066 5.65699C5.98299 5.87813 5.98299 6.12186 6.066 6.34299C6.124 6.51699 6.288 6.69699 7.496 7.91199C9.048 9.47199 9.084 9.49999 9.554 9.47399C10.081 9.44399 10.44 9.09199 10.473 8.57399C10.499 8.16299 10.422 8.01699 9.884 7.46699L9.421 6.99399L11.601 7.01099C13.676 7.02599 13.799 7.03099 14.18 7.11599C16.595 7.65399 18.365 9.42599 18.881 11.82C18.951 12.145 18.971 12.4 18.986 13.18C19.009 14.303 19.035 14.429 19.306 14.699C19.486 14.88 19.764 15 20 15C20.402 15 20.827 14.688 20.939 14.31C21.012 14.065 21.023 12.944 20.959 12.26C20.632 8.77399 18.052 5.87899 14.647 5.17899C13.906 5.02599 13.425 4.99999 11.363 4.99999H9.427L9.887 4.52999C10.422 3.98299 10.499 3.83699 10.473 3.42599C10.468 3.27115 10.4241 3.12005 10.3455 2.98656C10.2669 2.85307 10.156 2.74147 10.023 2.66199C9.863 2.56299 9.776 2.53899 9.544 2.52799C9.303 2.51699 9.229 2.52999 9.059 2.61599ZM3.673 9.06299C3.429 9.13799 3.15 9.41399 3.064 9.66599C3.015 9.81099 3 10.019 3 10.577C3 12.206 3.226 13.291 3.817 14.499C4.905 16.726 6.958 18.328 9.353 18.821C10.094 18.974 10.575 19 12.637 19H14.573L14.113 19.47C13.578 20.017 13.501 20.163 13.527 20.574C13.56 21.092 13.919 21.444 14.446 21.474C14.916 21.5 14.952 21.472 16.506 19.912C17.8 18.612 17.875 18.529 17.936 18.323C18.016 18.051 18.016 17.949 17.936 17.677C17.875 17.471 17.8 17.388 16.506 16.088C14.952 14.528 14.916 14.5 14.446 14.526C13.919 14.556 13.56 14.908 13.527 15.426C13.501 15.837 13.578 15.983 14.116 16.533L14.579 17.006L12.399 16.989C10.324 16.974 10.201 16.969 9.82 16.884C7.394 16.343 5.622 14.563 5.117 12.16C5.046 11.822 5.023 11.545 5.002 10.74C4.973 9.61399 4.96 9.55699 4.679 9.28299C4.411 9.02399 4.054 8.94599 3.673 9.06299Z" fill="#10161F"/>
</svg>
