<svg width="100" height="26" viewBox="0 0 100 26" fill="none" xmlns="http://www.w3.org/2000/svg">
<path d="M91.3468 6.65953C93.0231 6.51366 94.235 6.88279 95.505 7.89712C95.4962 7.51523 95.4293 6.82641 95.9791 6.84412C96.7911 6.87027 97.6373 6.87917 98.4547 6.8803C98.5582 6.88044 98.6822 6.93442 98.7594 6.99494C98.9894 7.61956 98.756 12.389 98.8331 13.2983C98.8834 13.896 98.8522 19.0418 98.732 19.2925C98.4923 19.3873 97.8541 19.4163 97.5294 19.3931C97.086 19.3613 95.9234 19.492 95.608 19.2597C95.4562 19.1477 95.4986 18.6124 95.5016 18.4024C95.1813 18.6296 94.858 18.8264 94.5235 19.0334C93.9552 19.3115 93.5001 19.4589 92.8707 19.5485C91.2594 19.7791 89.6188 19.3818 88.3111 18.444C84.7726 15.8958 84.8736 10.2493 88.3985 7.74103C89.3468 7.06597 90.1964 6.8177 91.3468 6.65953ZM92.8341 16.5168C93.6305 16.4408 94.3634 16.0652 94.8746 15.4714C96.0768 14.0539 95.9571 11.5297 94.4518 10.3523C93.8053 9.85231 92.9786 9.62156 92.1549 9.7111C92.129 9.71369 92.1031 9.71684 92.0773 9.72056C89.8683 9.94067 88.962 11.741 89.1666 13.6851C89.3541 15.4669 90.9488 16.7834 92.8341 16.5168Z" fill="#B990F8"/>
<path d="M19.8621 6.56721C20.3595 6.48567 20.9811 6.57159 21.4704 6.66847C23.0992 6.99112 24.5037 8.02952 25.4065 9.35557C25.7209 9.81725 26.3328 10.6881 26.2083 11.2567C26.1414 11.5618 19.3794 14.9738 18.3617 15.606C18.8729 16.0633 19.5226 16.3503 20.2154 16.4249C21.6494 16.5659 23.1808 15.6436 23.9283 14.4923C24.1153 14.2042 24.2681 13.2397 24.7039 13.3736C25.1381 13.5071 27.0235 13.8954 27.2452 14.1808C27.3041 14.3182 27.281 14.3661 27.2382 14.5061C26.4486 17.2527 24.0682 19.1213 21.1385 19.4643C17.4795 19.8927 14.139 17.0456 13.8117 13.549C13.635 11.8397 14.1751 10.1334 15.3113 8.8107C16.4451 7.50113 18.1087 6.7185 19.8621 6.56721ZM16.9797 13.2144L18.5675 12.3365C19.3608 11.9249 20.1504 11.5067 20.9362 11.0821C21.291 10.8924 21.8916 10.6028 22.1886 10.3839C21.3304 9.6467 20.9504 9.51599 19.8259 9.57544C17.8186 10.0594 16.8753 11.1881 16.9797 13.2144Z" fill="#B990F8"/>
<path d="M34.166 6.89236C34.7243 6.85388 36.9932 6.80894 37.4896 6.97625C37.7329 7.05825 37.5852 9.46961 37.6376 9.87412C37.7022 10.3728 37.6747 10.7776 37.8463 11.3495C38.3209 12.931 39.4 14.2955 40.9073 15.0885C42.3784 15.8625 44.1152 16.1287 45.752 15.6482C48.0262 14.9807 49.6302 13.2614 50.2596 11.0628C50.3811 10.6381 50.3982 10.0185 50.4407 9.59773C50.4974 9.04122 50.3445 7.36696 50.5818 6.94375C50.9671 6.80197 53.5403 6.80937 53.9534 7.00126C54.1238 7.08039 54.0608 10.0496 54.0325 10.3933C53.9515 12.1772 53.0872 14.2056 51.9588 15.6064C48.6223 19.7482 42.475 20.6158 38.1128 17.4211C35.9294 15.8101 34.4931 13.4331 34.116 10.8064C34 9.97859 33.9778 7.94545 34.0597 7.02669C34.1012 6.97422 34.1367 6.92943 34.166 6.89236Z" fill="#B990F8"/>
<path d="M7.04388 1.38553C7.57249 1.35875 11.6796 1.32894 12.0076 1.46641C12.0221 1.494 12.0354 1.52198 12.0455 1.5514C12.2188 2.05582 12.1123 7.23259 12.1133 8.17674L12.1188 11.9228C12.12 13.2529 12.181 14.2369 11.8208 15.5447C10.8081 19.222 6.60355 20.5708 3.22736 18.9408C2.83927 18.7255 0.915207 17.5651 1.24358 17.022C1.46667 16.653 3.11643 15.1735 3.48475 15.0557C3.71174 15.1406 4.0291 15.5523 4.2106 15.7226C5.27967 16.7423 7.73431 16.6134 8.32523 15.1283C8.78914 13.9624 8.62068 12.4322 8.63943 11.1883C8.67181 9.03663 8.59661 6.87019 8.62938 4.71982C8.23558 4.73377 6.78499 4.79255 6.50887 4.64515C6.49373 4.609 6.48113 4.57193 6.47112 4.53416C6.37977 4.19955 6.36248 1.71556 6.50364 1.48442C6.66478 1.38953 6.85223 1.3971 7.04388 1.38553Z" fill="#B990F8"/>
<path d="M78.7609 1.88912C79.5114 1.8834 81.1428 1.81139 81.7995 1.96408C82.0261 2.01669 81.9387 6.35188 81.9826 6.85765C82.7892 6.93702 84.0944 6.74767 84.84 6.98549C84.8952 7.00315 84.9562 7.2282 84.9553 7.25896C84.947 7.56182 85.0617 9.62543 84.8576 9.755C84.5485 9.95123 82.5187 9.82669 81.9919 9.89706C81.8708 11.2922 82.0891 18.9496 81.8493 19.3474C81.3664 19.4359 79.2009 19.4197 78.6755 19.314C78.5759 18.5877 78.6306 17.1058 78.6218 16.3177C78.5988 14.1717 78.6603 12.0129 78.6017 9.86597C78.2604 9.88086 75.9318 9.90818 75.8015 9.77681C75.5905 9.56467 75.6213 7.26305 75.7741 6.96236C76.1393 6.80584 78.0783 6.8764 78.6003 6.87894C78.6613 6.1379 78.4855 2.17189 78.7609 1.88912Z" fill="#B990F8"/>
<path d="M62.5685 14.1769C62.9674 13.3211 65.5963 7.14111 65.815 6.97936C66.0274 6.82199 68.503 6.82213 68.8854 6.88506C69.0196 6.90711 69.1031 6.93979 69.1827 7.04657C69.192 7.52131 67.8487 10.1469 67.5807 10.6907C67.3707 11.0477 66.7379 12.4801 66.5323 12.9163L64.1705 17.9345C64.0367 18.2189 63.6065 19.2707 63.3487 19.3364C62.9425 19.4399 61.9606 19.465 61.5563 19.2699C61.4693 19.2279 61.3492 18.989 61.3028 18.8912C60.0514 16.2522 58.7921 13.6004 57.5543 10.9565L56.3595 8.43899C56.1837 8.06302 55.6832 7.24831 55.8834 6.88629C56.4225 6.86556 58.8028 6.81766 59.2071 6.93565C59.5094 7.14214 60.1256 8.7548 60.3126 9.15088C61.0963 10.8104 61.7706 12.523 62.5685 14.1769Z" fill="#B990F8"/>
<path d="M29.092 6.89188C29.5905 6.85929 31.8652 6.79457 32.1768 7.00592C32.3276 7.29239 32.2687 9.74609 32.2672 10.2414L32.2601 15.3364L32.2647 18.7613C32.2656 19.4987 32.2993 20.5548 32.1594 21.2519C31.9459 22.3083 31.3053 23.2392 30.379 23.839C29.0741 24.6894 27.7171 24.7244 26.2314 24.4493C25.6249 24.3872 23.7552 23.3719 23.7662 22.7414C23.9991 22.2533 24.9624 21.5349 25.3592 21.1216C26.0596 20.3918 26.2311 21.5274 27.0985 21.5448C27.9758 21.5624 28.7788 21.4329 28.8852 20.425C28.9426 19.3175 28.912 18.1991 28.9118 17.0935L28.9095 10.6715C28.9084 9.56673 28.8905 8.44732 28.9154 7.34298C28.9199 7.14435 28.9355 7.02697 29.092 6.89188Z" fill="#B990F8"/>
<path d="M70.8396 6.88733C71.2576 6.85172 73.5915 6.81375 73.9026 6.97922C74.0867 7.48429 73.9836 14.2412 73.9836 15.1658L73.9831 17.8051C73.9831 18.2316 73.9924 18.6876 73.9656 19.1133C73.9582 19.2271 73.8469 19.3121 73.7566 19.3796C73.2341 19.3911 71.0788 19.4793 70.7361 19.2646C70.6003 18.8121 70.6438 17.027 70.6438 16.4567L70.6423 12.1358V9.05225C70.6423 8.64812 70.5486 7.12043 70.8396 6.88733Z" fill="#B990F8"/>
<path d="M71.9196 1.43498C72.9723 1.22199 74.005 1.87132 74.2277 2.8863C74.4503 3.90127 73.7794 4.89861 72.7277 5.11542C71.673 5.33279 70.6359 4.68324 70.4122 3.66556C70.1891 2.64788 70.8644 1.64853 71.9196 1.43498Z" fill="#B990F8"/>
<path d="M30.2829 1.43218C31.3281 1.23654 32.3423 1.8872 32.5594 2.89265C32.7765 3.89811 32.1159 4.88526 31.0767 5.10848C30.3917 5.25558 29.6776 5.03561 29.2077 4.53274C28.7379 4.02985 28.585 3.32193 28.8076 2.6799C29.0302 2.03787 29.5939 1.56114 30.2829 1.43218Z" fill="#B990F8"/>
</svg>
