<svg width="1589" height="201" viewBox="0 0 1589 201" fill="none" xmlns="http://www.w3.org/2000/svg">
<g clip-path="url(#clip0_74_2)">
<path d="M1560.27 1.17004H1551.87H1546.97V124.47L1458.09 1.17004H1447.6H1422.4V200.62H1447.6H1458.09H1461.59V74.96L1551.87 200.62H1557.47H1588.26V1.17004H1560.27Z" fill="#FFAC00" style="fill:#FFAC00;fill:color(display-p3 1.0000 0.6745 0.0000);fill-opacity:1;"/>
<path d="M1401.41 1.17004H1273.34V39.66H1401.41V1.17004Z" fill="#FFAC00" style="fill:#FFAC00;fill:color(display-p3 1.0000 0.6745 0.0000);fill-opacity:1;"/>
<path d="M1401.41 81.65H1273.34V120.14H1401.41V81.65Z" fill="#FFAC00" style="fill:#FFAC00;fill:color(display-p3 1.0000 0.6745 0.0000);fill-opacity:1;"/>
<path d="M1401.41 162.13H1273.34V200.62H1401.41V162.13Z" fill="#FFAC00" style="fill:#FFAC00;fill:color(display-p3 1.0000 0.6745 0.0000);fill-opacity:1;"/>
<path d="M1250.25 1.17004H1122.18V39.66H1250.25V1.17004Z" fill="#FFAC00" style="fill:#FFAC00;fill:color(display-p3 1.0000 0.6745 0.0000);fill-opacity:1;"/>
<path d="M1250.25 81.65H1122.18V120.14H1250.25V81.65Z" fill="#FFAC00" style="fill:#FFAC00;fill:color(display-p3 1.0000 0.6745 0.0000);fill-opacity:1;"/>
<path d="M1250.25 162.13H1122.18V200.62H1250.25V162.13Z" fill="#FFAC00" style="fill:#FFAC00;fill:color(display-p3 1.0000 0.6745 0.0000);fill-opacity:1;"/>
<path d="M605.7 1.17004H477.63V39.66H605.7V1.17004Z" fill="#FFAC00" style="fill:#FFAC00;fill:color(display-p3 1.0000 0.6745 0.0000);fill-opacity:1;"/>
<path d="M460.14 1.17004H332.07V39.66H460.14V1.17004Z" fill="#FFAC00" style="fill:#FFAC00;fill:color(display-p3 1.0000 0.6745 0.0000);fill-opacity:1;"/>
<path d="M605.7 81.65H477.63V120.14H605.7V81.65Z" fill="#FFAC00" style="fill:#FFAC00;fill:color(display-p3 1.0000 0.6745 0.0000);fill-opacity:1;"/>
<path d="M605.7 162.13H477.63V200.62H605.7V162.13Z" fill="#FFAC00" style="fill:#FFAC00;fill:color(display-p3 1.0000 0.6745 0.0000);fill-opacity:1;"/>
<path d="M867.79 162.13C833.97 162.13 806.55 134.71 806.55 100.89C806.55 67.07 833.97 39.66 867.79 39.66C888.7 39.66 907.16 50.14 918.21 66.13L950.07 44.53C932.1 18.35 901.95 1.17004 867.79 1.17004C812.71 1.17004 768.06 45.82 768.06 100.9C768.06 155.98 812.71 200.63 867.79 200.63C902.19 200.63 932.52 183.21 950.45 156.72L918.57 135.15C907.57 151.44 888.93 162.15 867.79 162.15V162.13Z" fill="#FFAC00" style="fill:#FFAC00;fill:color(display-p3 1.0000 0.6745 0.0000);fill-opacity:1;"/>
<path d="M695.28 79.9C644.89 63.45 670.44 42.81 670.44 42.81C670.44 42.81 690.74 23.56 732.72 58.56L756.16 28.47C756.16 28.47 707.52 -18.42 654.68 8.18001C601.84 34.77 620.39 92.51 669.03 111.75C717.67 131 718.02 130.65 718.02 146.74C718.02 161.09 692.48 169.13 666.58 158.64C647.33 148.14 639.64 134.15 639.64 134.15L614.1 163.43C614.1 163.43 635.8 200.64 691.43 200.64C747.06 200.64 758.96 159 758.96 139.75C758.96 120.5 745.66 96.36 695.28 79.91V79.9Z" fill="#FFAC00" style="fill:#FFAC00;fill:color(display-p3 1.0000 0.6745 0.0000);fill-opacity:1;"/>
<path d="M81.18 79.9001C30.79 63.4501 56.34 42.8101 56.34 42.8101C56.34 42.8101 76.63 23.5601 118.62 58.5601L142.06 28.4701C142.06 28.4701 93.43 -18.4299 40.59 8.16006C-12.25 34.7601 6.3 92.4901 54.94 111.74C103.58 130.99 103.93 130.64 103.93 146.73C103.93 161.08 78.39 169.12 52.49 158.63C33.24 148.13 25.55 134.14 25.55 134.14L0 163.41C0 163.41 21.7 200.62 77.33 200.62C132.96 200.62 144.86 158.98 144.86 139.73C144.86 120.48 131.56 96.3401 81.18 79.8901V79.9001Z" fill="#FFAC00" style="fill:#FFAC00;fill:color(display-p3 1.0000 0.6745 0.0000);fill-opacity:1;"/>
<path d="M332.07 81.65V120.14V200.62H370.56V120.14H460.14V81.65H370.56H332.07Z" fill="#FFAC00" style="fill:#FFAC00;fill:color(display-p3 1.0000 0.6745 0.0000);fill-opacity:1;"/>
<path d="M1100.83 62.05C1100.83 -4.25996 1021.05 1.17004 1021.05 1.17004H959.47V200.62H998.66V39.66H1018.61C1050.63 39.66 1059.55 45.26 1059.55 69.93C1059.55 94.6 1018.09 94.6 1018.09 94.6V129.24L1066.38 200.62H1113.62L1061.13 125.56C1061.13 125.56 1100.85 115.59 1100.85 62.05H1100.83Z" fill="#FFAC00" style="fill:#FFAC00;fill:color(display-p3 1.0000 0.6745 0.0000);fill-opacity:1;"/>
<path d="M238.77 1.17004H224.08H214.63L138.52 200.62H152.17H173.69H181.56L231.16 55.66L280.76 200.62H289.16H310.16H324.33L248.22 1.17004H238.77Z" fill="#FFAC00" style="fill:#FFAC00;fill:color(display-p3 1.0000 0.6745 0.0000);fill-opacity:1;"/>
<path d="M231.42 200.62L262.65 152.33H200.19L231.42 200.62Z" fill="#FFAC00" style="fill:#FFAC00;fill:color(display-p3 1.0000 0.6745 0.0000);fill-opacity:1;"/>
</g>
<defs>
<clipPath id="clip0_74_2">
<rect width="1588.26" height="200.62" fill="white" style="fill:white;fill-opacity:1;"/>
</clipPath>
</defs>
</svg>
