<svg width="135" height="24" viewBox="0 0 135 24" fill="none" xmlns="http://www.w3.org/2000/svg">
<g clip-path="url(#clip0_1_183)">
<path d="M1.48242 9.16783C1.97637 9.15022 2.5212 9.1621 3.02049 9.16239L5.72186 9.1631L14.0242 9.16303L17.7938 9.16179L18.785 9.16164C19.2568 9.16182 19.7055 9.1156 19.9993 9.54892C20.0784 9.6656 20.1295 9.79728 20.1493 9.93472C20.1693 10.0653 20.1719 10.237 20.1663 10.3694C20.1243 11.388 20.2596 12.4871 20.0492 13.4865C19.7951 14.6588 19.153 15.7191 18.1646 16.4739C17.3554 17.0921 16.3639 17.518 15.3208 17.5935C15.1064 17.609 14.9002 17.6407 14.6869 17.5977C14.7256 17.6723 14.7634 17.7466 14.8056 17.8195C14.9344 17.9829 15.2171 18.3645 15.3831 18.4672C15.4232 18.4921 15.6024 18.5141 15.7409 18.5993C15.8917 18.6904 15.9965 18.8362 16.0307 19.0027C16.0617 19.1553 16.0294 19.3879 15.9463 19.5152C15.8661 19.6379 15.5442 19.8161 15.3969 19.8235C15.0801 19.8394 14.6969 19.8318 14.3749 19.8316L11.9658 19.8307L7.68125 19.8317L6.31387 19.8321C6.0512 19.8321 5.78614 19.8341 5.52434 19.8257C4.8599 19.8045 4.60521 19.1355 5.00972 18.6585C5.11211 18.5378 5.36471 18.4988 5.51981 18.4794C5.62035 18.3136 6.05639 17.761 6.18813 17.6138C3.65597 17.7019 1.42154 15.9993 0.830546 13.6845C0.64926 12.8966 0.702006 12.0807 0.697024 11.2791C0.706971 10.8183 0.672846 10.3502 0.712907 9.89118C0.74985 9.46784 1.08319 9.25404 1.48242 9.16783Z" fill="white"/>
<path d="M18.0706 3.98683C18.776 3.85323 19.8043 4.76169 19.7272 5.45933C19.6888 5.80506 19.2923 6.19033 19.0868 6.46417C18.8522 6.77711 18.6089 7.07207 18.3436 7.362C18.0928 7.64026 17.8765 7.94681 17.5901 8.19497C17.1265 8.20965 16.6534 8.20023 16.1886 8.19998L13.8512 8.20025C13.4148 8.20025 12.5101 8.16809 12.1284 8.2267C12.3553 8.06339 12.5384 7.8862 12.7548 7.71387C13.2499 7.31285 13.754 6.92181 14.2665 6.54104C14.7076 6.20776 17.7397 4.06006 18.0706 3.98683Z" fill="white"/>
</g>
<g clip-path="url(#clip1_1_183)">
<path d="M108.271 3.91121C112.981 3.56574 116.821 6.28992 117.364 10.9121C117.943 15.8511 115.263 19.8518 109.975 20.401L109.878 20.4102C104.994 20.8511 101.074 17.7468 100.733 13.0135C100.385 8.18516 103.139 4.37113 108.271 3.91121ZM109.807 19.8754C116.572 18.7513 117.103 7.05376 110.872 4.72543C110.201 4.47501 109.149 4.33053 108.426 4.44755C106.864 4.64554 105.628 5.46862 104.644 6.68983C101.347 10.7834 102.747 19.8146 109.229 19.9152C109.383 19.9176 109.628 19.8991 109.786 19.8784C109.793 19.8774 109.8 19.8764 109.807 19.8754Z" fill="white"/>
<path d="M31.8535 4.00988C32.6151 3.98879 33.6434 3.99437 34.4242 4.01005C36.5858 4.07252 38.9079 3.89238 40.9121 4.82023C42.8513 5.718 43.3287 8.50971 42.4218 10.2383C41.7993 11.4248 40.4538 11.9128 39.1932 12.2791C39.4277 12.5557 40.254 13.9402 40.4992 14.332L42.8742 18.1276C43.275 18.7685 43.7386 19.5613 44.1638 20.1718C43.3131 20.1859 42.4378 20.1789 41.585 20.1819C41.3542 19.8563 41.1863 19.5424 40.9397 19.2129C39.912 17.4133 38.6769 15.6622 37.6117 13.878C37.3701 13.4734 37.1185 13.1033 36.8978 12.6832C35.9686 12.7495 34.9648 12.7595 34.0347 12.7612C34.0611 15.1434 34.0813 17.8065 34.0241 20.1791C33.3646 20.1581 32.471 20.1746 31.8046 20.1884C31.7724 18.8189 31.7765 4.14833 31.8535 4.00988ZM34.0344 12.2713C35.595 12.2648 38.3416 12.2001 39.5301 11.0791C40.8827 9.93241 41.0275 6.95974 39.8453 5.67136C38.5085 4.21462 35.8538 4.65296 34.0376 4.53404C34.0373 7.06515 34.0809 9.75178 34.0344 12.2713Z" fill="white"/>
<path d="M88.6083 4.01061C90.7375 4.01187 92.8963 3.96253 95.0148 4.15905C96.7043 4.32823 98.7381 4.95677 99.2266 6.74976C100.1 9.95437 98.8158 11.3363 95.8558 12.2783C97.4016 14.9129 99.1825 17.5309 100.759 20.1684C99.9335 20.1926 99.0301 20.1785 98.1983 20.1798C97.9617 19.853 97.7575 19.4908 97.5534 19.1432C96.78 18.0839 95.936 16.488 95.1606 15.351C94.9493 15.041 93.6143 12.9292 93.5305 12.6928C92.5565 12.7295 91.6313 12.7624 90.6573 12.756C90.6502 15.1964 90.7015 17.743 90.6441 20.1717C89.9347 20.1828 89.1435 20.2002 88.4417 20.1632C88.3833 14.9197 88.491 9.64068 88.4336 4.39447C88.4321 4.27071 88.4387 4.16883 88.4793 4.04964L88.6083 4.01061ZM90.6482 12.2734C92.2275 12.2649 94.9458 12.1974 96.1595 11.0816C97.3747 10.0341 97.5062 7.88512 96.9791 6.47927C96.1402 4.243 92.6815 4.53477 90.6583 4.53209C90.6619 6.96995 90.734 9.86472 90.6482 12.2734Z" fill="white"/>
<path d="M119.471 4.01533C120.148 3.99832 121.205 3.98161 121.864 4.03737C122.024 4.34035 122.255 4.96723 122.394 5.31053L123.415 7.83129C124.63 10.8393 125.893 14.1498 127.184 17.0991C129.025 12.8551 130.708 8.31795 132.497 4.02608C133.031 3.98292 133.839 4.0069 134.393 4.00811L134.388 20.1894C134.016 20.1564 132.603 20.1727 132.21 20.193C132.164 16.0466 132.206 11.8277 132.208 7.67677L132.211 6.14914L128.445 15.4516C127.831 16.9707 127.178 18.6944 126.516 20.1833L126.024 20.1705C125.873 19.8656 125.66 19.2766 125.524 18.9411L124.524 16.4836C123.142 13.1148 121.779 9.56397 120.345 6.23005C120.304 7.50121 120.344 8.8486 120.332 10.1261C120.302 13.4689 120.381 16.8491 120.327 20.1873L119.818 20.1677C119.74 19.2817 119.801 17.3671 119.802 16.4161L119.802 9.11055L119.803 6.51434C119.803 6.03723 119.803 5.42488 119.757 4.95251C119.743 4.80536 119.527 4.22544 119.471 4.01533Z" fill="white"/>
<path d="M72.331 4.00855C72.935 4.00355 74.3086 3.9733 74.8588 4.04576C75.0791 4.25192 75.6835 5.02613 75.8996 5.29153L77.9605 7.82494L85.1172 16.6194C85.0472 15.9981 85.0888 14.5413 85.0908 13.8711L85.098 8.71733C85.0985 8.09219 85.0131 4.4012 85.1162 4.05161C85.2635 3.99523 85.4854 4.0244 85.6489 4.03432L85.6525 20.1735C85.5966 20.1768 85.3559 20.1873 85.3183 20.1749C84.9801 20.0641 84.5312 19.3931 84.3337 19.1316C83.9742 18.759 83.2673 17.8241 82.9017 17.3727L79.9069 13.6758L75.9432 8.78377C75.1607 7.81992 74.2469 6.7446 73.5227 5.75085C73.575 6.62261 73.5439 7.73609 73.5444 8.63033L73.5457 13.7758L73.5462 17.8104C73.5467 18.5062 73.5763 19.5277 73.5157 20.1879C73.3736 20.1789 73.1674 20.1843 73.0198 20.1835C73.0262 15.2506 73.07 10.2298 73.0086 5.3034C72.8211 4.98117 72.3588 4.40545 72.1157 4.08628L72.1386 4.0358L72.331 4.00855Z" fill="white"/>
<path d="M45.9672 4.01819C46.4385 3.99702 46.9683 4.00058 47.4403 4.00919C50.1864 4.0593 52.9974 3.92236 55.7347 4.02941C55.7394 4.73397 55.7361 5.43857 55.7248 6.14306C53.2478 4.25497 51.1967 4.50529 48.1535 4.51427L48.1502 11.4518C50.0233 11.4992 51.9266 11.451 53.8078 11.4793C53.8114 11.6406 53.8238 11.8175 53.8318 11.9801L48.1536 11.9886L48.1519 14.9399L48.1538 19.656C51.2824 19.6757 53.204 19.92 55.7444 18.0428C55.7646 18.7153 55.7968 19.5102 55.7361 20.1735C53.4279 20.2391 51.0003 20.1329 48.6843 20.1765C47.8315 20.1925 46.7848 20.1418 45.9515 20.1971C45.8638 16.8438 45.9464 13.1441 45.9463 9.76436L45.9405 6.07175C45.9393 5.55 45.9114 4.50629 45.9672 4.01819Z" fill="white"/>
<path d="M58.1708 4.01419C58.8456 4.00837 59.6924 3.9832 60.3558 4.02441L60.3556 11.5731C60.3545 14.761 59.6958 19.9581 64.6488 19.9643C65.9638 19.9659 67.2216 19.6143 68.1649 18.6991C69.8241 17.0981 69.5357 14.6913 69.5489 12.6094C69.5557 11.552 69.5794 10.4416 69.573 9.392C69.5584 8.17358 69.5501 6.95507 69.5482 5.73655C69.548 5.32663 69.5213 4.41587 69.5798 4.05289C70.3487 3.62564 70.0947 5.13762 70.0963 5.46225L70.1078 9.98229C70.1082 11.5667 70.1802 13.7245 70.0775 15.2551C70.0354 15.9067 69.9107 16.5509 69.7062 17.1732C69.0504 19.1032 67.519 20.1154 65.5171 20.4054C65.354 20.4291 65.0621 20.4615 64.9166 20.5H63.1179C61.4944 20.2182 60.2572 19.9276 59.2249 18.5209C58.7892 17.9272 58.3945 16.9414 58.296 16.2175C58.101 14.7829 58.1681 13.1256 58.1683 11.6607L58.1708 4.01419Z" fill="white"/>
</g>
<defs>
<clipPath id="clip0_1_183">
<rect width="21" height="17" fill="white" transform="translate(0 3.5)"/>
</clipPath>
<clipPath id="clip1_1_183">
<rect width="104" height="17" fill="white" transform="translate(31 3.5)"/>
</clipPath>
</defs>
</svg>
